<svg width="1200" height="900" viewBox="0 0 1200 900" fill="none" xmlns="http://www.w3.org/2000/svg">
  <defs>
    <linearGradient id="bgecom" x1="84" y1="72" x2="1044" y2="858" gradientUnits="userSpaceOnUse">
      <stop stop-color="#101936"/>
      <stop offset="0.55" stop-color="#1667FF"/>
      <stop offset="1" stop-color="#0F8F83"/>
    </linearGradient>
  </defs>
  <rect width="1200" height="900" fill="url(#bgecom)"/>
  <circle cx="984" cy="148" r="184" fill="#F3C166" fill-opacity="0.18"/>
  <circle cx="240" cy="172" r="190" fill="#92C9FF" fill-opacity="0.16"/>
  <rect x="118" y="162" width="964" height="446" rx="34" fill="#081321" fill-opacity="0.56"/>
  <rect x="164" y="214" width="204" height="134" rx="24" fill="#F4FAFF" fill-opacity="0.14"/>
  <rect x="390" y="214" width="204" height="134" rx="24" fill="#F4FAFF" fill-opacity="0.14"/>
  <rect x="616" y="214" width="204" height="134" rx="24" fill="#F4FAFF" fill-opacity="0.14"/>
  <rect x="842" y="214" width="194" height="134" rx="24" fill="#F4FAFF" fill-opacity="0.14"/>
  <rect x="164" y="376" width="872" height="188" rx="28" fill="#F4FAFF" fill-opacity="0.08"/>
  <g>
    <rect x="192" y="244" width="68" height="64" rx="16" fill="#93CEFF"/>
    <rect x="272" y="244" width="68" height="64" rx="16" fill="#F8C96F"/>
    <rect x="418" y="244" width="64" height="64" rx="16" fill="#9DF2E8"/>
    <rect x="494" y="244" width="76" height="64" rx="16" fill="#FFB68B"/>
    <rect x="644" y="244" width="74" height="64" rx="16" fill="#93CEFF"/>
    <rect x="730" y="244" width="60" height="64" rx="16" fill="#9DF2E8"/>
    <rect x="870" y="244" width="64" height="64" rx="16" fill="#F8C96F"/>
    <rect x="946" y="244" width="62" height="64" rx="16" fill="#93CEFF"/>
  </g>
  <g fill="#F7FBFF" fill-opacity="0.76">
    <rect x="200" y="414" width="286" height="20" rx="10"/>
    <rect x="200" y="454" width="246" height="20" rx="10"/>
    <rect x="200" y="494" width="222" height="20" rx="10"/>
    <rect x="596" y="414" width="298" height="20" rx="10"/>
    <rect x="596" y="454" width="256" height="20" rx="10"/>
    <rect x="596" y="494" width="214" height="20" rx="10"/>
  </g>
  <rect y="620" width="1200" height="280" fill="#08111F" fill-opacity="0.5"/>
  <path d="M160 760H330L398 666H236L160 760Z" fill="#FFC962"/>
  <rect x="242" y="616" width="76" height="72" rx="14" fill="#DDEEFF" fill-opacity="0.42"/>
  <rect x="474" y="708" width="238" height="116" rx="26" fill="#F4FAFF" fill-opacity="0.14"/>
  <rect x="510" y="740" width="86" height="28" rx="14" fill="#9DF2E8"/>
  <rect x="610" y="740" width="66" height="28" rx="14" fill="#F8C96F"/>
  <rect x="510" y="780" width="138" height="18" rx="9" fill="#F4FAFF" fill-opacity="0.72"/>
  <circle cx="246" cy="786" r="34" fill="#08111F"/>
  <circle cx="326" cy="786" r="34" fill="#08111F"/>
  <path d="M860 694H1044V818H860V694Z" fill="#F4FAFF" fill-opacity="0.12"/>
  <rect x="888" y="724" width="58" height="58" rx="16" fill="#9DF2E8"/>
  <rect x="958" y="724" width="58" height="58" rx="16" fill="#93CEFF"/>
</svg>
